<?xml version="1.0" encoding="UTF-8" standalone="no"?>
<svg
   xmlns:dc="http://purl.org/dc/elements/1.1/"
   xmlns:cc="http://creativecommons.org/ns#"
   xmlns:rdf="http://www.w3.org/1999/02/22-rdf-syntax-ns#"
   xmlns:svg="http://www.w3.org/2000/svg"
   xmlns="http://www.w3.org/2000/svg"
   xmlns:sodipodi="http://sodipodi.sourceforge.net/DTD/sodipodi-0.dtd"
   xmlns:inkscape="http://www.inkscape.org/namespaces/inkscape"
   xml:space="preserve"
   enable-background="new 0 0 300 100"
   viewBox="0 0 800 486"
   height="486"
   width="800"
   y="0px"
   x="0px"
   id="Layer_1"
   version="1.1"
   sodipodi:docname="asqlogo.svg"
   inkscape:version="0.92.3 (2405546, 2018-03-11)"
   inkscape:export-filename="E:\MySpaces\ASQ\syna-start\static\images\logo.png"
   inkscape:export-xdpi="96"
   inkscape:export-ydpi="96"><sodipodi:namedview
     pagecolor="#ffffff"
     bordercolor="#666666"
     borderopacity="1"
     objecttolerance="10"
     gridtolerance="10"
     guidetolerance="10"
     inkscape:pageopacity="0"
     inkscape:pageshadow="2"
     inkscape:window-width="1920"
     inkscape:window-height="1001"
     id="namedview14"
     showgrid="false"
     inkscape:zoom="0.42544258"
     inkscape:cx="434.3043"
     inkscape:cy="-146.83624"
     inkscape:window-x="-9"
     inkscape:window-y="-9"
     inkscape:window-maximized="1"
     inkscape:current-layer="layer1" /><metadata
     id="metadata25"><rdf:RDF><cc:Work
         rdf:about=""><dc:format>image/svg+xml</dc:format><dc:type
           rdf:resource="http://purl.org/dc/dcmitype/StillImage" /><dc:title></dc:title></cc:Work></rdf:RDF></metadata><defs
     id="defs23"><inkscape:perspective
       sodipodi:type="inkscape:persp3d"
       inkscape:vp_x="101.81012 : 166.86786 : 1"
       inkscape:vp_y="-30.833681 : -1.0844233 : 0"
       inkscape:vp_z="-204.16362 : 316.75099 : 1"
       inkscape:persp3d-origin="-50.66288 : 241.82751 : 1"
       id="perspective877" /><inkscape:perspective
       sodipodi:type="inkscape:persp3d"
       inkscape:vp_x="29.145402 : 77.893619 : 1"
       inkscape:vp_y="0 : 57.760108 : 0"
       inkscape:vp_z="279.25963 : 77.893619 : 1"
       inkscape:persp3d-origin="154.20253 : 76.930946 : 1"
       id="perspective831" /><clipPath
       clipPathUnits="userSpaceOnUse"
       id="clipPath1037"><path
         style="fill:none;stroke:#000000;stroke-width:1px;stroke-linecap:butt;stroke-linejoin:miter;stroke-opacity:1"
         d="m -174.51523,107.89474 70.22161,-73.54571 h -70.22161 z"
         id="path1039"
         inkscape:connector-curvature="0" /></clipPath><clipPath
       clipPathUnits="userSpaceOnUse"
       id="clipPath1402"><rect
         style="opacity:1;fill:#e2acff;fill-opacity:0.96825406;fill-rule:evenodd;stroke:#ffffff;stroke-width:10;stroke-miterlimit:4;stroke-dasharray:none;stroke-dashoffset:0;stroke-opacity:1"
         id="rect1404"
         width="437.19177"
         height="297.33743"
         x="396.05817"
         y="-213.79088" /></clipPath></defs><flowRoot
     xml:space="preserve"
     id="flowRoot823"
     style="font-style:normal;font-weight:normal;font-size:12px;line-height:25px;font-family:sans-serif;letter-spacing:0px;word-spacing:0px;fill:#000000;fill-opacity:1;stroke:none"
     transform="translate(0,386)"><flowRegion
       id="flowRegion825"><rect
         id="rect827"
         width="175.34627"
         height="86.42659"
         x="113.85042"
         y="10.249308" /></flowRegion><flowPara
       id="flowPara829" /></flowRoot><g
     inkscape:groupmode="layer"
     id="layer1"
     inkscape:label="Layer 1"
     transform="translate(0,386)"><circle
       style="opacity:1;fill:#40d8ff;fill-opacity:0.96825406;fill-rule:evenodd;stroke:none;stroke-width:17.38582611;stroke-miterlimit:4;stroke-dasharray:none;stroke-dashoffset:0;stroke-opacity:1"
       id="path1034"
       cx="-316.14139"
       cy="-95.090958"
       r="0" /><path
       style="opacity:1;fill:#00838f;fill-opacity:1;fill-rule:evenodd;stroke:none;stroke-width:16.20028305;stroke-miterlimit:4;stroke-dasharray:none;stroke-dashoffset:0;stroke-opacity:1"
       d="m 129.44134,-376.62079 a 108.02601,120.76768 0 0 0 -1.00558,0.0398 h -3.81547 v 0.15149 A 108.02601,120.76768 0 0 0 21.641103,-260.92122 h -0.60192 V -6.917157 H 161.36576 v -0.0112 H 264.94688 V -376.58097 h -134.7938 a 108.02601,120.76768 0 0 0 -0.71174,-0.0398 z"
       id="rect1036"
       inkscape:connector-curvature="0" /><circle
       style="opacity:1;fill:#00838f;fill-opacity:1;fill-rule:evenodd;stroke:#ffffff;stroke-width:8.90059662;stroke-miterlimit:3;stroke-dasharray:none;stroke-dashoffset:0;stroke-opacity:1"
       id="path1061"
       cx="143.16093"
       cy="-187.33292"
       r="107.33186" /><circle
       style="opacity:1;fill:#00838f;fill-opacity:1;fill-rule:evenodd;stroke:#ffffff;stroke-width:10.93006134;stroke-miterlimit:4;stroke-dasharray:none;stroke-dashoffset:0;stroke-opacity:1"
       id="path1061-5"
       cx="104.00124"
       cy="-201.62358"
       r="64.03624" /><circle
       style="opacity:1;fill:#00838f;fill-opacity:1;fill-rule:evenodd;stroke:#ffffff;stroke-width:8.31688595;stroke-miterlimit:4;stroke-dasharray:none;stroke-dashoffset:0;stroke-opacity:1"
       id="path1061-5-2"
       cx="130.11087"
       cy="-186.32376"
       r="35.21764" /><rect
       style="opacity:1;fill:#00838f;fill-opacity:1;fill-rule:evenodd;stroke:#00838f;stroke-width:10.7300415;stroke-miterlimit:4;stroke-dasharray:none;stroke-dashoffset:0;stroke-opacity:1"
       id="rect1553-8"
       width="153.05762"
       height="53.065758"
       x="281.54379"
       y="-67.599731" /><rect
       style="opacity:1;fill:#00838f;fill-opacity:1;fill-rule:evenodd;stroke:#00838f;stroke-width:10.07492161;stroke-miterlimit:4;stroke-dasharray:none;stroke-dashoffset:0;stroke-opacity:1"
       id="rect1553-8-8"
       width="133.29283"
       height="53.720879"
       x="361.61673"
       y="-284.78415" /><rect
       style="opacity:1;fill:#00838f;fill-opacity:1;fill-rule:evenodd;stroke:#00838f;stroke-width:7.7965641;stroke-miterlimit:4;stroke-dasharray:none;stroke-dashoffset:0;stroke-opacity:1"
       id="rect1553-8-8-0"
       width="76.517021"
       height="56.042175"
       x="359.71948"
       y="-177.56805" /><path
       style="opacity:1;fill:#00838f;fill-opacity:1;fill-rule:evenodd;stroke:none;stroke-width:11.23790932;stroke-miterlimit:4;stroke-dasharray:none;stroke-dashoffset:0;stroke-opacity:1"
       d="m 357.15524,-289.80078 a 84.897575,86.141708 0 0 0 -84.89844,86.14062 84.897575,86.141708 0 0 0 84.89844,86.14258 84.897575,86.141708 0 0 0 0.23633,-0.008 v -63.93555 a 22.021896,22.344616 0 0 1 -0.0352,0.002 22.021896,22.344616 0 0 1 -22.02148,-22.34571 22.021896,22.344616 0 0 1 22.02148,-22.34375 22.021896,22.344616 0 0 1 0.0352,0.002 v -63.64258 a 84.897575,86.141708 0 0 0 -0.23633,-0.0117 z"
       id="path1648"
       inkscape:connector-curvature="0" /><path
       style="opacity:1;fill:#00838f;fill-opacity:1;fill-rule:evenodd;stroke:none;stroke-width:11.23790932;stroke-miterlimit:4;stroke-dasharray:none;stroke-dashoffset:0;stroke-opacity:1"
       d="m 438.87015,-181.4668 v 63.78125 a 22.021896,22.344616 0 0 1 0.006,0 22.021896,22.344616 0 0 1 22.02344,22.34571 22.021896,22.344616 0 0 1 -22.02344,22.34375 22.021896,22.344616 0 0 1 -0.006,0 v 63.79297 a 84.897575,86.141708 0 0 0 84.66016,-86.13477 84.897575,86.141708 0 0 0 -84.66016,-86.12891 z"
       id="path1600-1"
       inkscape:connector-curvature="0" /><rect
       style="opacity:1;fill:#00838f;fill-opacity:1;fill-rule:evenodd;stroke:#00838f;stroke-width:15.28993225;stroke-miterlimit:4;stroke-dasharray:none;stroke-dashoffset:0;stroke-opacity:1"
       id="rect1553-8-8-7"
       width="367.31097"
       height="44.899727"
       x="-282.45477"
       y="-785.99707"
       transform="rotate(90)" /><path
       style="opacity:1;fill:#00838f;fill-opacity:1;fill-rule:evenodd;stroke:none;stroke-width:8.02124119;stroke-miterlimit:4;stroke-dasharray:none;stroke-dashoffset:0;stroke-opacity:1"
       d="M 659.10349,-291.91016 A 131.67056,144.59833 0 0 0 527.43355,-147.3125 131.67056,144.59833 0 0 0 659.10349,-2.71289 131.67056,144.59833 0 0 0 790.77344,-147.3125 131.67056,144.59833 0 0 0 659.10349,-291.91016 Z m 4.12436,64.1543 a 71.584633,78.613007 0 0 1 71.58488,78.61328 71.584633,78.613007 0 0 1 -71.58488,78.61328 71.584633,78.613007 0 0 1 -71.58488,-78.61328 71.584633,78.613007 0 0 1 71.58488,-78.61328 z"
       id="path1746"
       inkscape:connector-curvature="0" /></g></svg>